<svg xmlns="http://www.w3.org/2000/svg" viewBox="0 0 1600 900" role="img" aria-label="Searchlight Meridian">
  <defs>
    <linearGradient id="sky" x1="0" y1="0" x2="0.35" y2="1">
      <stop offset="0%" stop-color="#0E1218"/>
      <stop offset="55%" stop-color="#151B24"/>
      <stop offset="100%" stop-color="#1C2430"/>
    </linearGradient>
    <linearGradient id="beam" x1="0.55" y1="0" x2="0.85" y2="1">
      <stop offset="0%" stop-color="#7DD3FC" stop-opacity="0.55"/>
      <stop offset="45%" stop-color="#7DD3FC" stop-opacity="0.12"/>
      <stop offset="100%" stop-color="#7DD3FC" stop-opacity="0"/>
    </linearGradient>
    <linearGradient id="signal" x1="0.2" y1="0.1" x2="0.7" y2="0.9">
      <stop offset="0%" stop-color="#FF5A1F" stop-opacity="0.35"/>
      <stop offset="100%" stop-color="#FF5A1F" stop-opacity="0"/>
    </linearGradient>
    <radialGradient id="orb" cx="78%" cy="22%" r="40%">
      <stop offset="0%" stop-color="#7DD3FC" stop-opacity="0.4"/>
      <stop offset="100%" stop-color="#7DD3FC" stop-opacity="0"/>
    </radialGradient>
  </defs>
  <rect width="1600" height="900" fill="url(#sky)"/>
  <rect width="1600" height="900" fill="url(#orb)"/>
  <polygon points="980,0 1600,0 1600,900 620,900" fill="url(#beam)"/>
  <circle cx="1280" cy="160" r="180" fill="url(#signal)"/>
  <path d="M0 640 C320 560 520 720 820 650 C1120 580 1320 700 1600 640 V900 H0 Z" fill="#0A0D12" opacity="0.65"/>
  <path d="M0 720 C360 660 560 780 880 710 C1200 640 1380 760 1600 700 V900 H0 Z" fill="#07090C" opacity="0.55"/>
  <g fill="none" stroke="#7DD3FC" stroke-width="1.5" opacity="0.35">
    <path d="M160 200 H420"/>
    <path d="M160 200 V380"/>
    <circle cx="420" cy="200" r="5" fill="#FF5A1F" stroke="none" opacity="0.9"/>
    <path d="M1080 120 H1380"/>
    <path d="M1380 120 V300"/>
    <circle cx="1080" cy="120" r="5" fill="#FF5A1F" stroke="none" opacity="0.9"/>
  </g>
  <g fill="#F2F4F7" opacity="0.12">
    <circle cx="220" cy="460" r="2.5"/><circle cx="540" cy="280" r="2"/><circle cx="900" cy="400" r="2.5"/><circle cx="1420" cy="520" r="3"/><circle cx="1180" cy="680" r="2"/>
  </g>
</svg>
