<svg xmlns="http://www.w3.org/2000/svg" viewBox="0 0 1600 900" role="img" aria-label="Atmosphere Meridian"><defs><linearGradient id="sky" x1="0" y1="0" x2="1" y2="1"><stop offset="0%" stop-color="#0f2f26"/><stop offset="45%" stop-color="#1b4d3e"/><stop offset="100%" stop-color="#2f6b55"/></linearGradient><linearGradient id="glow" x1="0.2" y1="0.1" x2="0.9" y2="0.9"><stop offset="0%" stop-color="#c47a2c" stop-opacity="0.55"/><stop offset="100%" stop-color="#c47a2c" stop-opacity="0"/></linearGradient><radialGradient id="orb" cx="70%" cy="35%" r="45%"><stop offset="0%" stop-color="#9fc0b0" stop-opacity="0.45"/><stop offset="100%" stop-color="#9fc0b0" stop-opacity="0"/></radialGradient></defs><rect width="1600" height="900" fill="url(#sky)"/><rect width="1600" height="900" fill="url(#orb)"/><circle cx="1180" cy="280" r="260" fill="url(#glow)"/><path d="M0 620C280 540 420 700 700 640C980 580 1100 720 1600 620V900H0Z" fill="#0a221c" opacity="0.55"/><path d="M0 680C320 620 480 760 760 700C1040 640 1220 760 1600 690V900H0Z" fill="#14201a" opacity="0.5"/><g opacity="0.35" fill="none" stroke="#9fc0b0" stroke-width="2"><path d="M180 220H420"/><path d="M180 220V390"/><circle cx="420" cy="220" r="6" fill="#c47a2c" stroke="none"/><path d="M980 160H1280"/><path d="M1280 160V340"/><circle cx="980" cy="160" r="6" fill="#c47a2c" stroke="none"/></g><g fill="#e7f1ec" opacity="0.12"><circle cx="240" cy="480" r="3"/><circle cx="520" cy="300" r="2"/><circle cx="860" cy="420" r="2.5"/><circle cx="1400" cy="520" r="3"/><circle cx="1100" cy="700" r="2"/></g></svg>
